# xmcd CD database file
#
# Track frame offsets:
#	150
#	18675
#	36532
#	53643
#	74593
#	92394
#	144607
#	157086
#	170094
#	185318
#	203760
#	227123
#	242413
#	269716
#
# Disc length: 3908 seconds
#
# Revision: 0
# Processed by: cddbd v1.5.1PL0 Copyright (c) Steve Scherf et al.
# Submitted via: CDex 1.51
#
DISCID=cd0f420e
DTITLE=Sub Divided - Live - Raw
DYEAR=1900
DGENRE=Country
TTITLE0=Keep Your Hands to Yourself
TTITLE1=Pass It On Down
TTITLE2=One In A Million Try
TTITLE3=Just Remember
TTITLE4=Why Momma Why
TTITLE5=Simple Man-Turn The Page
TTITLE6=Man Of Constant Sorrow
TTITLE7=Hang On Sloopy
TTITLE8=Little Sister
TTITLE9=What A Wonderful Dream
TTITLE10=Only God Knows Why
TTITLE11=This Drinking Will Kill Me
TTITLE12=SSB-Arm To Arm
TTITLE13=Long White Cadillac
EXTD=
EXTT0=
EXTT1=
EXTT2=
EXTT3=
EXTT4=
EXTT5=
EXTT6=
EXTT7=
EXTT8=
EXTT9=
EXTT10=
EXTT11=
EXTT12=
EXTT13=
PLAYORDER=
